{"title":"Armin Van Buuren - Waiting For The Night (Ft. Fiora) M4A+MP4 (10","uid":8100500,"size":43672282,"categoryP":"video","categoryS":"music_videos","magnet":"?xt=urn:btih:cd696b3c2b415d964acccffdd88e0d8058360e88&amp;dn=Armin+Van+Buuren+-+Waiting+For+The+Night+%28Ft.+Fiora%29+M4A%2BMP4+%2810&amp;tr=udp%3A%2F%2Ftracker.openbittorrent.com%3A80&amp;tr=udp%3A%2F%2Fopen.demonii.com%3A1337&amp;tr=udp%3A%2F%2Ftracker.coppersurfer.tk%3A6969&amp;tr=udp%3A%2F%2Fexodus.desync.com%3A6969","seeders":1,"leechers":0,"uploader":"Vitamin_X","files":-1,"time":1359958122,"description":"_________________________  Visit us at _________________________\n  &lt;a href=&quot;\nhttp://p2pdl.com&quot; rel=&quot;nofollow&quot; target=&quot;_NEW&quot;&gt;\nhttp://p2pdl.com&lt;/a&gt;  ____________________________ &lt;a href=&quot; http://p2pdl.com&quot; rel=&quot;nofollow&quot; target=&quot;_NEW&quot;&gt; http://p2pdl.com&lt;/a&gt;\n\n &lt;a href=&quot;\nhttp://www.shotpix.com/images/31093357852877970134.jpg&quot; rel=&quot;nofollow&quot; target=&quot;_NEW&quot;&gt;\nhttp://www.shotpix.com/images/31093357852877970134.jpg&lt;/a&gt;\n\n\nArmin Van Buuren - Waiting For The Night (Ft. Fiora) M4A+MP4 (1080p) x264 [VX] [P2PDL]\n\n\n                          1080p Full HD MP4 Video\n                                     +\n                           128 Kbps/VBR M4A Audio\n\nGeneral\nFormat                         : MPEG-4\nFormat profile                 : Base Media / Version 2\nCodec ID                       : mp42\nFile size                      : 37.3 MiB\nDuration                       : 3mn 17s\nOverall bit rate mode          : Variable\nOverall bit rate               : 1 583 Kbps\n\nVideo\nFormat                         : AVC\nWidth                          : 1 920 pixels\nHeight                         : 1 080 pixels\nDisplay aspect ratio           : 16:9\nFrame rate mode                : Constant\nFrame rate                     : 25.000 fps\nColor space                    : YUV\nChroma subsampling             : 4:2:0\nBit depth                      : 8 bits\nScan type                      : Progressive\nBits/(Pixel*Frame)             : 0.028\nStream size                    : 34.3 MiB (92%)\nWriting library                : x264 core 129\n\nAudio\nFormat                         : AAC\nDuration                       : 3mn 17s\nBit rate mode                  : Variable\nBit rate                       : 123 Kbps\nChannel(s)                     : 2 channels\nChannel positions              : Front: L R\nSampling rate                  : 48.0 KHz\nStream size                    : 2.90 MiB (8%)\n\nSubtitles                      : No\n\nScreens:\n &lt;a href=&quot;\nhttp://www.shotpix.com/images/63312229097720285102.jpg&quot; rel=&quot;nofollow&quot; target=&quot;_NEW&quot;&gt;\nhttp://www.shotpix.com/images/63312229097720285102.jpg&lt;/a&gt; &lt;a href=&quot;\nhttp://www.shotpix.com/images/26203429547426855351.jpg&quot; rel=&quot;nofollow&quot; target=&quot;_NEW&quot;&gt;\nhttp://www.shotpix.com/images/26203429547426855351.jpg&lt;/a&gt;\n\nThumbs:\n &lt;a href=&quot;\nhttp://www.shotpix.com/images/55308221747768130144.jpg&quot; rel=&quot;nofollow&quot; target=&quot;_NEW&quot;&gt;\nhttp://www.shotpix.com/images/55308221747768130144.jpg&lt;/a&gt;\n\n------------------------------------------------------------------------\n\nNotes:\n\n* Recommended to use latest version VLC Media Player.\n* Install shark007 codecs in case of any kind of problem in playback (For non-VLC Media Player users).\n* Alternatively, install Core AVC codecs, the fastest decoder that there is coupled with Community Center Codec Pack and play on Windows Media Player Classic.\n\nGreets to: VYTO, a2zRG, MusiK_KinG, Sheychi, Caveman, Ash968, Neon, Masta, TorDigger and staff members at ExtraTorrent, TPB, H33T, KAT, 1337x, PublicHD, Ahashare, TorrentMafia, Limetorrents, BTScene, P2PDL, and all others\n\nEncoder Notes: Looking For Early Access To Anything You Can Provide DVDScr, R5, DVDRips, BluRay, Direct Audio, Early Music\nReleases, Seedboxes, Links, Dedicated Servers anything u can provide, Advance / Promo CDs/DVDs. If You Got anything to\noffer contact me at &quot;&lt;a class=&quot;__cf_email__&quot; href=&quot;/cdn-cgi/l/email-protection&quot; data-cfemail=&quot;87f7f5e0c7eff2f4efa9e4e8ea&quot;&gt;[email&amp;#160;protected]&lt;/a&gt;&lt;script cf-hash='f9e31' type=&quot;text/javascript&quot;&gt;\n/* &lt;![CDATA[ */!function(){try{var t=&quot;currentScript&quot;in document?document.currentScript:function(){for(var t=document.getElementsByTagName(&quot;script&quot;),e=t.length;e--;)if(t[e].getAttribute(&quot;cf-hash&quot;))return t[e]}();if(t&amp;&amp;t.previousSibling){var e,r,n,i,c=t.previousSibling,a=c.getAttribute(&quot;data-cfemail&quot;);if(a){for(e=&quot;&quot;,r=parseInt(a.substr(0,2),16),n=2;a.length-n;n+=2)i=parseInt(a.substr(n,2),16)^r,e+=String.fromCharCode(i);e=document.createTextNode(e),c.parentNode.replaceChild(e,c)}}}catch(u){}}();/* ]]&gt; */&lt;/script&gt;&quot;.","torrent":{"xt":"urn:btih:cd696b3c2b415d964acccffdd88e0d8058360e88","amp;dn":"Armin+Van+Buuren+-+Waiting+For+The+Night+%28Ft.+Fiora%29+M4A%2BMP4+%2810","amp;tr":["udp%3A%2F%2Ftracker.openbittorrent.com%3A80","udp%3A%2F%2Fopen.demonii.com%3A1337","udp%3A%2F%2Ftracker.coppersurfer.tk%3A6969","udp%3A%2F%2Fexodus.desync.com%3A6969"],"infoHash":"cd696b3c2b415d964acccffdd88e0d8058360e88","infoHashBuffer":{"type":"Buffer","data":[205,105,107,60,43,65,93,150,74,204,207,253,216,142,13,128,88,54,14,136]},"announce":[],"urlList":[]}}